<?xml version="1.0" encoding="utf-8"?>
<!-- Generator: Adobe Illustrator 22.0.1, SVG Export Plug-In . SVG Version: 6.00 Build 0)  -->
<svg version="1.1" id="Layer_1" xmlns="http://www.w3.org/2000/svg" xmlns:xlink="http://www.w3.org/1999/xlink" x="0px" y="0px"
	 viewBox="0 0 650 600" style="enable-background:new 0 0 650 600;" xml:space="preserve">
<style type="text/css">
	.st0{fill:#333333;}
</style>
<g>
	<path class="st0" d="M326.4,525.3c-109.7,0-201.2-77.7-222.7-181h82.6v-49H99c1.4-124.4,102.6-224.8,227.4-224.8
		s226,100.4,227.4,224.8H451.6v49H549c0,0.2-0.1,0.3-0.1,0.5h74.7c2.2-14.6,3.3-29.5,3.3-44.7C627,134.3,492.7,0,327,0
		S27,134.3,27,300s134.3,300,300,300c131.7,0,243.5-84.8,283.9-202.8H531C494.1,473,416.3,525.3,326.4,525.3z"/>
	<path class="st0" d="M370.8,396.2c0-9-7.5-17.5-17.6-17.5c-3.5,0-6,1-7,1.5c-17.6,8-31.2,14-52.3,14c-36.2,0-54.8-18-54.8-46.1
		v-29.5c17.6,3,36.2,4.5,51.3,4.5c59.8,0,84.9-28,84.9-74.1c0-49.6-27.6-81.6-83.4-81.6c-59.8,0-92,36.5-92,84.6v93.6
		c0,47.1,32.7,83.1,89.4,83.1C316.5,428.8,370.8,420.7,370.8,396.2z M239.1,248.5c0-28,19.1-45.6,51.8-45.6
		c29.1,0,45.7,13.5,45.7,46.1c0,20.5-6.5,41.1-44.7,41.1c-10.1,0-34.2-1-52.8-3.5V248.5z"/>
	<path class="st0" d="M419.4,125.1c-11.1,0-19.6,9-19.6,19.5v245.8c0,36.5-15.6,51.6-42.7,57.6c-7.5,1.5-18.6,8-15.1,21.5
		c2,8,8.5,13,16.6,13c3,0,5.5,0,9.5-0.5c45.2-6.5,70.9-41.1,70.9-93.6V144.7C439,134.1,430.5,125.1,419.4,125.1z"/>
</g>
</svg>
